<?xml version="1.0" standalone="no"?>
<!DOCTYPE svg PUBLIC "-//W3C//DTD SVG 20010904//EN"
 "http://www.w3.org/TR/2001/REC-SVG-20010904/DTD/svg10.dtd">
<svg version="1.0" xmlns="http://www.w3.org/2000/svg"
 width="624.000000pt" height="365.000000pt" viewBox="0 0 624.000000 365.000000"
 preserveAspectRatio="xMidYMid meet">

<g transform="translate(0.000000,365.000000) scale(0.100000,-0.100000)"
fill="#000000" stroke="none">
<path d="M3087 2863 c-4 -3 -7 -105 -7 -225 l0 -218 -30 0 -30 0 0 170 0 170
-24 12 c-53 24 -56 14 -56 -177 l0 -175 -30 0 -30 0 0 130 c0 128 0 131 -24
142 -51 23 -56 10 -56 -133 l0 -131 -45 -40 c-30 -26 -45 -48 -45 -64 0 -21
-4 -24 -40 -24 l-40 0 0 160 c0 160 0 160 -24 172 -54 24 -56 15 -56 -190 0
-224 -1 -222 98 -222 l62 0 0 -60 0 -59 -77 -3 c-73 -3 -78 -5 -81 -26 -6 -40
14 -52 89 -52 l69 0 0 -65 0 -64 -77 -3 c-73 -3 -78 -5 -81 -26 -6 -40 14 -52
89 -52 l69 0 0 -60 0 -60 -69 0 c-47 0 -72 -4 -80 -14 -9 -10 -11 -73 -9 -219
l3 -205 50 -55 c53 -58 80 -73 114 -62 35 11 24 38 -39 100 l-60 59 0 158 0
158 33 0 c17 0 58 -8 89 -17 l58 -18 0 -418 c0 -448 0 -444 49 -417 21 11 21
16 21 425 l0 415 35 0 35 0 0 -480 c0 -516 -1 -507 49 -480 21 11 21 15 21
485 l0 475 40 0 40 0 0 -550 c0 -591 -1 -577 49 -550 21 11 21 14 21 555 l0
545 30 0 30 0 0 -480 c0 -516 -1 -507 49 -480 21 11 21 15 21 485 l0 475 40 0
40 0 0 -420 c0 -451 0 -447 49 -420 21 11 21 16 21 425 l0 415 34 0 c21 0 36
6 40 15 4 10 20 15 51 15 l45 0 0 -173 0 -173 -50 -49 c-53 -52 -62 -86 -26
-93 12 -3 41 19 87 64 l69 68 0 202 0 202 -25 16 c-16 11 -47 16 -95 16 l-70
0 0 60 0 60 74 0 c90 0 106 5 106 36 0 33 -28 44 -109 44 l-71 0 0 65 0 64 87
3 c78 3 88 5 91 22 7 32 -25 46 -105 46 l-73 0 0 70 0 70 78 0 c114 0 112 -4
112 214 l0 176 -24 12 c-53 23 -56 13 -56 -167 l0 -165 -45 0 -45 0 0 39 c0
32 -6 44 -31 65 -17 14 -35 26 -40 26 -5 0 -9 55 -9 125 0 123 0 126 -24 137
-51 23 -56 11 -56 -137 l0 -135 -30 0 -30 0 0 170 0 170 -24 12 c-53 24 -56
14 -56 -177 l0 -175 -30 0 -30 0 0 215 c0 202 -1 215 -19 225 -23 12 -45 13
-54 3z m238 -579 c39 -15 45 -53 45 -298 0 -231 0 -235 -22 -250 -19 -13 -58
-16 -228 -16 -187 0 -208 2 -237 20 l-33 20 0 242 c0 316 -25 288 251 288 114
0 215 -3 224 -6z"/>
<path d="M2922 2218 c-9 -9 -12 -68 -12 -205 0 -161 3 -198 16 -218 l16 -25
178 0 c149 0 181 3 194 16 14 13 16 47 16 218 0 144 -3 205 -12 214 -8 8 -67
12 -198 12 -131 0 -190 -4 -198 -12z m338 -213 l0 -165 -140 0 -140 0 0 165 0
165 140 0 140 0 0 -165z"/>
<path d="M3003 2124 c-7 -19 13 -64 28 -64 7 0 21 8 32 17 18 17 19 17 28 0 6
-9 15 -17 21 -17 6 0 20 8 31 17 18 17 19 17 28 0 6 -9 16 -17 23 -17 20 0 48
36 44 57 -3 16 -16 18 -116 20 -92 1 -114 -2 -119 -13z"/>
<path d="M3003 2034 c-7 -19 13 -64 28 -64 7 0 21 8 32 17 18 17 19 17 28 0 6
-9 15 -17 21 -17 6 0 20 8 31 17 18 17 19 17 28 0 6 -9 16 -17 23 -17 20 0 48
36 44 57 -3 16 -16 18 -116 20 -92 1 -114 -2 -119 -13z"/>
<path d="M3003 1944 c-7 -19 13 -64 28 -64 7 0 21 8 32 17 18 17 19 17 28 0 6
-9 15 -17 21 -17 6 0 20 8 31 17 18 17 19 17 28 0 6 -9 16 -17 23 -17 20 0 48
36 44 57 -3 16 -16 18 -116 20 -92 1 -114 -2 -119 -13z"/>
<path d="M3767 2524 c-4 -4 -7 -309 -7 -678 l0 -670 -61 -62 c-56 -56 -60 -64
-54 -93 4 -17 12 -31 19 -31 6 0 46 35 89 78 l77 78 -2 689 -3 690 -25 3 c-14
2 -29 0 -33 -4z"/>
<path d="M2407 2503 c-4 -3 -7 -292 -7 -642 l0 -636 28 -47 c40 -69 124 -168
144 -168 65 0 62 35 -10 118 -102 117 -92 39 -92 741 0 603 -1 621 -19 631
-23 12 -35 13 -44 3z m176 -1480 c-7 -2 -19 -2 -25 0 -7 3 -2 5 12 5 14 0 19
-2 13 -5z"/>
<path d="M3907 2414 c-4 -4 -7 -441 -7 -971 0 -1037 -2 -991 49 -963 l21 11
-2 962 -3 962 -25 3 c-14 2 -29 0 -33 -4z"/>
<path d="M2267 2393 c-12 -11 -8 -1361 4 -1368 5 -4 21 -4 35 -1 l24 6 0 675
c0 656 -1 675 -19 685 -23 12 -35 13 -44 3z"/>
<path d="M4037 2254 c-4 -4 -7 -405 -7 -891 0 -966 -3 -911 56 -885 l24 12 -2
882 -3 883 -30 3 c-17 2 -34 0 -38 -4z"/>
<path d="M2137 2243 c-12 -11 -8 -1091 3 -1098 6 -4 24 -4 40 0 l30 7 0 538
c0 523 -1 540 -19 550 -23 12 -45 13 -54 3z m36 -1090 c-7 -2 -19 -2 -25 0 -7
3 -2 5 12 5 14 0 19 -2 13 -5z"/>
<path d="M2007 2103 c-11 -10 -8 -1621 3 -1628 5 -3 21 -3 35 1 l25 6 0 804
c0 784 0 804 -19 814 -23 12 -35 13 -44 3z"/>
<path d="M4177 2103 c-4 -3 -7 -370 -7 -815 0 -884 -3 -836 56 -810 l24 12 0
798 c0 607 -3 801 -12 810 -13 13 -50 16 -61 5z"/>
</g>
</svg>
